<svg xmlns="http://www.w3.org/2000/svg" viewBox="0 0 380.3 475.46"><defs><style>.cls-1,.cls-2{stroke:#000;stroke-miterlimit:10;}.cls-1{stroke-width:20px;}.cls-2{fill:none;stroke-width:46px;}</style></defs><title>Asset 1</title><g id="Layer_2" data-name="Layer 2"><g id="Layer_3" data-name="Layer 3"><path class="cls-1" d="M102.85,351.52s-34.45-22-50.63-18.34-41.1,68.18-41.1,68.18-6.85,23.13,13.35,27.56,25.59-6,42.31,0,28.86,31.44,28.86,31.44,6.74,8.28,19.68,3.3,34.52-67.54,34.52-67.54S152.94,372.71,102.85,351.52Z"/><path class="cls-1" d="M277.46,351.72s34.45-22,50.63-18.33,41.1,68.19,41.1,68.19,6.83,23.13-13.37,27.55-25.59-6-42.31,0-28.86,31.45-28.86,31.45-6.74,8.28-19.68,3.29-34.51-67.54-34.51-67.54S227.37,372.9,277.46,351.72Z"/><circle class="cls-2" cx="192.24" cy="176.71" r="153.71"/></g></g></svg>